<?xml version="1.0" encoding="UTF-8"?>
<svg id="Camada_1" xmlns="http://www.w3.org/2000/svg" version="1.1" xmlns:xlink="http://www.w3.org/1999/xlink" viewBox="0 0 42 42">
  <!-- Generator: Adobe Illustrator 29.0.1, SVG Export Plug-In . SVG Version: 2.1.0 Build 192)  -->
  <defs>
    <style>
      .st0 {
        fill: url(#gradiente_amarelo);
      }

      .st0, .st1 {
        fill-rule: evenodd;
      }

      .st1 {
        fill: url(#gradiente_amarelo1);
      }
    </style>
    <linearGradient id="gradiente_amarelo" data-name="gradiente amarelo" x1="-45.9" y1="-11.6" x2="-5.4" y2="-11.6" gradientUnits="userSpaceOnUse">
      <stop offset=".3" stop-color="#ffdb6e"/>
      <stop offset="1" stop-color="#ffbc5e"/>
    </linearGradient>
    <linearGradient id="gradiente_amarelo1" data-name="gradiente amarelo" x1=".8" y1="23.7" x2="41.2" y2="23.7" xlink:href="#gradiente_amarelo"/>
  </defs>
  <path class="st0" d="M-44.8-30.2H-6.5c.6,0,1.1.5,1.1,1.2V-.8c0,.7-.5,1.2-1.1,1.2h-38.3c-.6,0-1.1-.5-1.1-1.2v-28.2c0-.7.5-1.2,1.1-1.2h0ZM-19-5.4l-5.3-3.6v-2.3l5.3-3.6v2.7l-3.2,2,3.2,2v2.7h0ZM-15.7-5.4l5.3-3.6v-2.3l-5.3-3.6v2.7l3.2,2-3.2,2v2.7h0ZM-33.2-14.1l1.3,1.4c.3.4.3,1,0,1.3l-1,1.1c.3.6.5,1.2.6,1.9h1.3c.5,0,.9.4.9.9v2c0,.5-.4.9-.9.9h-1.4c-.1.5-.3.9-.5,1.3H-8c.5,0,1-.5,1-1.1v-23c0-.6-.4-1.1-1-1.1h-35.3c-.5,0-1,.5-1,1.1v12.7c.3-.3.8-.3,1.1,0l1,1.1c.5-.3,1.1-.5,1.7-.7v-1.5c0-.5.4-.9.9-.9h1.8c.5,0,.9.4.9.9v1.6c.6.2,1.1.5,1.6.8l.9-1c.3-.4.9-.4,1.2,0h0ZM-38.9-11.1c2.2,0,3.9,2,3.9,4.4s-.6,2.7-1.6,3.5h-4.7c-1-.8-1.6-2.1-1.6-3.5,0-2.4,1.8-4.4,3.9-4.4h0ZM-41.4-21.3h2.5c.2,0,.4.2.4.4v.8c0,.2-.2.4-.4.4h-2.5c-.2,0-.4-.2-.4-.4v-.8c0-.2.2-.4.4-.4h0ZM-37.3-25.4h9.8c.2,0,.4.2.4.4v.8c0,.2-.2.4-.4.4h-9.8c-.2,0-.4-.2-.4-.4v-.8c0-.2.2-.4.4-.4h0ZM-41.4-25.4h2.5c.2,0,.4.2.4.4v.8c0,.2-.2.4-.4.4h-2.5c-.2,0-.4-.2-.4-.4v-.8c0-.2.2-.4.4-.4h0ZM-33.3-21.3h16.2c.2,0,.4.2.4.4v.8c0,.2-.2.4-.4.4h-16.2c-.2,0-.4-.2-.4-.4v-.8c0-.2.2-.4.4-.4h0ZM-37.3-21.3h2.5c.2,0,.4.2.4.4v.8c0,.2-.2.4-.4.4h-2.5c-.2,0-.4-.2-.4-.4v-.8c0-.2.2-.4.4-.4h0ZM-30.7,2.1h10c0,1.9.7,3.6,2.7,5h-15.3c1.5-1.2,2.7-2.8,2.7-5h0Z"/>
  <path class="st1" d="M8.6,18.4l6-8.3c1.7-2.3,3.1-4.2,6.4-4.2,3.5,0,4.9,2.2,6.7,4.7,1.6,2.3,3.2,4.5,4.8,6.8,2.5,3.5,5.7,5.8,1.8,10,2.4,1.6,4,4.1,4.9,7.2l2.1,6.9h-7.4v-7.8c0-.8-.6-1.4-1.4-1.4H9.6c-.8,0-1.4.6-1.4,1.4v7.8H.8c1.7-6.3,3.6-12.2,7.1-14.2-1.2-.8-1.8-1.7-2-2.7-.5-2.3,1.4-4.4,2.6-6.1h0ZM20.3,28.7h1.4l-.3.9c1.7-.1,3.3-1.3,4.2-3.5.9-2.3,1.9-1.1,1.8-5.1v-3c0-1.7-.7-2.5-2.2-2.4-2.8,1.6-5.6,1.3-8.4,0-1.1-.3-1.8.5-2.1,2.1,0,1.9-.3,4.9.5,6.5.4.9.9,1.1,1.4,2.2.9,1.9,2.4,3,4,3.2l-.3-.8h0ZM20.4,24.4c-1.4.2-1.1,1.2-3.1,0h-.4c.3.4.7,1.2,1.2,1.4,1.3.4,2,0,2.8-.8.7.9,1.5,1.3,2.8.8.5-.2.9-.9,1.2-1.4h-.4c-2.1,1.3-1.7.2-3.2,0-.3,0-.7,0-1,0h0ZM20.5,21.5c-1.2-.2-2.3-.1-3.5,0,1.2-1,3-1.5,3.5,0h0ZM21.5,21.5c1.2-.2,2.3-.2,3.5,0-1.2-1-3-1.5-3.5,0h0ZM19.6,18.4c.3.3.6.7.9,1.1-1-.6-2.1-1.1-3.1-1.2.2-.2.4-.4.6-.5.6-.2,1.2.2,1.6.6h0ZM22.4,18.4c-.3.3-.6.7-.9,1.1,1-.6,2.1-1.1,3.1-1.2-.2-.2-.4-.4-.6-.5-.6-.2-1.2.2-1.6.6h0Z"/>
</svg>